#!OML:ASF F:\VICON\USERDATA\INSTALL\rory3\rory3.ASF
:FULLY-SPECIFIED
:DEGREES
501
root 9.34338 17.2861 13.4713 4.42326 15.7298 4.89027
lowerback 6.0594 -2.53314 -0.893456
upperback -2.71394 -3.17417 4.90114
thorax -5.91161 -1.42643 6.0014
lowerneck -13.1908 -7.31377 -12.9151
upperneck 19.0435 -8.78801 7.03569
head 9.04828 -4.36943 3.44331
rclavicle 3.12092e-014 3.18055e-015
rhumerus -14.2816 -2.95726 -57.2481
rradius 69.2543
rwrist -27.164
rhand -17.3702 19.4296
rfingers 7.12502
rthumb 8.87812 -10.3636
lclavicle 3.12092e-014 3.18055e-015
lhumerus -2.84619 47.2133 66.4579
lradius 24.8289
lwrist -27.6798
lhand -13.5428 254.018
lfingers 7.12502
lthumb 12.57 224.416
rfemur -16.586 -0.537761 26.8802
rtibia 40.7732
rfoot -23.2017 -0.321001
rtoes 41.2987
lfemur -25.1327 -0.263992 -14.4659
ltibia 57.7767
lfoot -12.2574 0.229056
ltoes -6.57732
502
root 9.36485 17.2979 13.5712 4.57754 14.6413 4.64345
lowerback 5.94044 -2.23616 -0.833307
upperback -2.47695 -2.78161 4.90054
thorax -5.63801 -1.24445 5.90787
lowerneck -13.5808 -7.25354 -12.8889
upperneck 18.8682 -8.71324 7.33091
head 9.06234 -4.29292 3.541
rclavicle -1.2921e-014 -2.38542e-014
rhumerus -13.1211 -2.4506 -56.9377
rradius 70.0685
rwrist -27.2818
rhand -17.4964 19.4426
rfingers 7.12502
rthumb 8.75637 -10.3557
lclavicle -1.2921e-014 -2.38542e-014
lhumerus -5.17876 47.4926 62.8657
lradius 25.3202
lwrist -24.4809
lhand -15.528 256.222
lfingers 7.12502
lthumb 10.6555 226.512
rfemur -16.2669 0.296164 27.1031
rtibia 40.4426
rfoot -22.8741 0.082148
rtoes 42.3782
lfemur -25.6915 -0.53402 -13.9726
ltibia 56.7974
lfoot -12.3612 -0.299613
ltoes -5.46041
503
root 9.38889 17.2835 13.6634 4.86321 13.6206 4.65083
lowerback 5.9285 -1.95019 -0.990666
upperback -2.45237 -2.41912 4.80433
thorax -5.64114 -1.06141 5.85739
lowerneck -13.721 -7.19979 -12.7663
upperneck 18.797 -8.66893 7.44491
head 9.05698 -4.2485 3.56343
rclavicle -4.58199e-014 -1.27222e-014
rhumerus -12.1221 -1.99893 -56.6692
rradius 70.5094
rwrist -27.371
rhand -17.5801 19.5814
rfingers 7.12502
rthumb 8.67552 -10.2204
lclavicle -4.58199e-014 -1.27222e-014
lhumerus -8.04906 47.6128 58.8243
lradius 25.6841
lwrist -22.325
lhand -16.6123 260.225
lfingers 7.12502
lthumb 9.60946 230.464
rfemur -15.7964 0.883251 27.0753
rtibia 40.1136
rfoot -22.9143 0.355989
rtoes 41.9072
lfemur -26.4333 -0.912683 -13.7926
ltibia 55.924
lfoot -12.5267 -0.826457
ltoes -5.44859
504
root 9.40605 17.3176 13.7611 5.20236 12.5909 4.60836
lowerback 6.09009 -1.65721 -1.04695
upperback -2.65418 -2.02769 4.72248
thorax -5.98964 -0.855806 5.77953
lowerneck -13.3393 -7.1233 -12.5855
upperneck 18.5625 -8.62089 7.35593
head 8.88841 -4.22976 3.51943
rclavicle -4.60187e-014 3.65764e-014
rhumerus -11.3891 -1.60021 -56.3743
rradius 70.7009
rwrist -27.3271
rhand -17.6114 20.024
rfingers 7.12502
rthumb 8.64532 -9.77897
lclavicle -4.60187e-014 3.65764e-014
lhumerus -11.4572 48.1877 54.3771
lradius 25.7222
lwrist -21.6759
lhand -16.9196 267.529
lfingers 7.12502
lthumb 9.31289 237.755
rfemur -15.8639 1.67447 27.0116
rtibia 39.8381
rfoot -22.5175 0.837031
rtoes 42.3351
lfemur -27.0949 -1.17856 -13.6146
ltibia 54.9257
lfoot -12.8055 -1.38157
ltoes -6.27442
505
root 9.43052 17.326 13.8506 5.46254 11.6416 4.56588
lowerback 6.1724 -1.38282 -1.06162
upperback -2.64826 -1.66531 4.64462
thorax -6.07063 -0.675813 5.66982
lowerneck -13.2719 -7.03079 -12.5605
upperneck 18.3098 -8.52952 7.52866
head 8.78594 -4.16845 3.58847
rclavicle -2.97183e-014 -7.95139e-015
rhumerus -10.4413 -1.45207 -56.0783
rradius 70.8316
rwrist -27.2264
rhand -17.626 20.4897
rfingers 7.12502
rthumb 8.63125 -9.31384
lclavicle -2.97183e-014 -7.95139e-015
lhumerus -14.5668 47.7008 50.3319
lradius 25.894
lwrist -20.2315
lhand -16.6366 442.927
lfingers 7.12502
lthumb 9.58593 247.311
rfemur -15.6376 2.17972 26.9398
rtibia 39.5093
rfoot -22.4926 1.28312
rtoes 42.0774
lfemur -27.7823 -1.40819 -13.5072
ltibia 54.0826
lfoot -12.7011 -1.53644
ltoes -5.62987
506
root 9.46092 17.3153 13.9391 5.64228 10.7791 4.49094
lowerback 6.22173 -1.16348 -1.06873
upperback -2.53797 -1.37746 4.60724
thorax -6.01293 -0.536889 5.60075
lowerneck -13.5099 -6.96685 -12.7494
upperneck 18.208 -8.44993 7.93857
head 8.81259 -4.09814 3.76518
rclavicle 4.55217e-014 -1.27222e-014
rhumerus -9.20068 -1.5124 -55.9332
rradius 70.7017
rwrist -27.1523
rhand -17.5637 20.7526
rfingers 7.12502
rthumb 8.69137 -9.04843
lclavicle 4.55217e-014 -1.27222e-014
lhumerus -17.556 47.0059 46.5651
lradius 26.1084
lwrist -18.7348
lhand -15.5495 431.627
lfingers 7.12502
lthumb 10.6347 258.662
rfemur -15.1637 2.39267 26.8957
rtibia 39.1793
rfoot -22.6946 1.77753
rtoes 41.3284
lfemur -28.4225 -1.62298 -13.4277
ltibia 53.2931
lfoot -12.5418 -1.26003
ltoes -5.32072
